<svg width="170" height="116" viewBox="0 0 170 116" fill="none" xmlns="http://www.w3.org/2000/svg">
<path d="M18.0938 12.6875C18.2812 12.5 18.5104 12.4062 18.7812 12.4062C19.0521 12.4062 19.2812 12.5 19.4688 12.6875C19.6562 12.875 19.75 13.1042 19.75 13.375V18.0938H23.4688C23.7396 18.0938 23.9688 18.1875 24.1562 18.375C24.3438 18.5625 24.4375 18.7917 24.4375 19.0625C24.4375 19.3333 24.3438 19.5625 24.1562 19.75C23.9688 19.9375 23.7396 20.0312 23.4688 20.0312H19.75V23.75C19.75 24.7917 20.1146 25.6771 20.8438 26.4062C21.5729 27.1354 22.4479 27.5 23.4688 27.5C24.8854 27.5 25.9583 26.8958 26.6875 25.6875C26.8333 25.4583 27.0312 25.3125 27.2812 25.25C27.5312 25.1875 27.7708 25.2292 28 25.375C28.2292 25.5208 28.375 25.7188 28.4375 25.9688C28.5 26.2188 28.4583 26.4583 28.3125 26.6875C27.7917 27.5208 27.1042 28.1875 26.25 28.6875C25.3958 29.1875 24.4688 29.4375 23.4688 29.4375C21.9062 29.4375 20.5729 28.8854 19.4688 27.7812C18.3646 26.6562 17.8125 25.3125 17.8125 23.75V20.0312H14.0625C13.7917 20.0312 13.5625 19.9375 13.375 19.75C13.2083 19.5625 13.125 19.3333 13.125 19.0625C13.125 18.7917 13.2083 18.5625 13.375 18.375C13.5625 18.1875 13.7917 18.0938 14.0625 18.0938H17.8125V13.375C17.8125 13.1042 17.9062 12.875 18.0938 12.6875ZM32.2188 27.7812C31.1146 26.6562 30.5625 25.3125 30.5625 23.75C30.5625 22.1875 31.1146 20.8542 32.2188 19.75C33.3229 18.6458 34.6562 18.0938 36.2188 18.0938C37.6354 18.0938 38.875 18.5625 39.9375 19.5V19.0625C39.9375 18.7917 40.0312 18.5625 40.2188 18.375C40.4062 18.1875 40.6354 18.0938 40.9062 18.0938C41.1771 18.0938 41.3958 18.1875 41.5625 18.375C41.75 18.5625 41.8438 18.7917 41.8438 19.0625V28.4688C41.8438 28.7396 41.75 28.9688 41.5625 29.1562C41.3958 29.3438 41.1771 29.4375 40.9062 29.4375C40.6354 29.4375 40.4062 29.3438 40.2188 29.1562C40.0312 28.9688 39.9375 28.7396 39.9375 28.4688V28.0312C38.875 28.9688 37.6354 29.4375 36.2188 29.4375C34.6562 29.4375 33.3229 28.8854 32.2188 27.7812ZM32.4688 23.75C32.4688 24.7917 32.8333 25.6771 33.5625 26.4062C34.3125 27.1354 35.1979 27.5 36.2188 27.5C37.1562 27.5 37.9792 27.1979 38.6875 26.5938C39.3958 25.9688 39.8125 25.1875 39.9375 24.25V23.2812C39.8125 22.3438 39.3958 21.5729 38.6875 20.9688C37.9792 20.3438 37.1562 20.0312 36.2188 20.0312C35.1771 20.0312 34.2917 20.3958 33.5625 21.125C32.8333 21.8542 32.4688 22.7292 32.4688 23.75ZM46.25 29.1562C46.0833 29.3438 45.8646 29.4375 45.5938 29.4375C45.3229 29.4375 45.0938 29.3438 44.9062 29.1562C44.7188 28.9688 44.625 28.7396 44.625 28.4688V7.0625C44.625 6.79167 44.7188 6.5625 44.9062 6.375C45.0938 6.1875 45.3229 6.09375 45.5938 6.09375C45.8646 6.09375 46.0833 6.1875 46.25 6.375C46.4375 6.5625 46.5312 6.79167 46.5312 7.0625V23.7188L54.4062 18.2812C54.6146 18.1146 54.8542 18.0625 55.125 18.125C55.3958 18.1667 55.6042 18.2917 55.75 18.5C55.8958 18.7292 55.9479 18.9688 55.9062 19.2188C55.8646 19.4688 55.7292 19.6771 55.5 19.8438L50.4688 23.3438L55.5938 27.75C55.8021 27.9167 55.9062 28.1354 55.9062 28.4062C55.9271 28.6562 55.8542 28.8854 55.6875 29.0938C55.5208 29.3021 55.3021 29.4167 55.0312 29.4375C54.7812 29.4375 54.5521 29.3542 54.3438 29.1875L48.8438 24.4688L46.5312 26.0625V28.4688C46.5312 28.7396 46.4375 28.9688 46.25 29.1562ZM67.0625 26.125C67.3333 26.125 67.5625 26.2188 67.75 26.4062C67.9375 26.5938 68.0312 26.8229 68.0312 27.0938C68.0312 27.3646 67.9375 27.5938 67.75 27.7812C66.6458 28.8854 65.3125 29.4375 63.75 29.4375C62.1875 29.4375 60.8542 28.8854 59.75 27.7812C58.6458 26.6562 58.0938 25.3125 58.0938 23.75C58.0938 22.1875 58.6458 20.8542 59.75 19.75C60.8542 18.6458 62.1875 18.0938 63.75 18.0938C65.3125 18.0938 66.6458 18.6458 67.75 19.75C68.8542 20.8542 69.4062 22.1875 69.4062 23.75C69.4062 24.0208 69.3125 24.25 69.125 24.4375C68.9583 24.625 68.7396 24.7188 68.4688 24.7188H60.125C60.3542 25.5312 60.8021 26.1979 61.4688 26.7188C62.1354 27.2396 62.8958 27.5 63.75 27.5C64.7917 27.5 65.6771 27.1354 66.4062 26.4062C66.5938 26.2188 66.8125 26.125 67.0625 26.125ZM67.375 22.8125C67.1458 22 66.6979 21.3333 66.0312 20.8125C65.3646 20.2917 64.6042 20.0312 63.75 20.0312C62.8958 20.0312 62.1354 20.2917 61.4688 20.8125C60.8021 21.3333 60.3542 22 60.125 22.8125H67.375ZM83.9688 27.7812C82.8646 26.6562 82.3125 25.3125 82.3125 23.75C82.3125 22.1875 82.8646 20.8542 83.9688 19.75C85.0729 18.6458 86.4062 18.0938 87.9688 18.0938C89.3854 18.0938 90.625 18.5625 91.6875 19.5V19.0625C91.6875 18.7917 91.7812 18.5625 91.9688 18.375C92.1562 18.1875 92.3854 18.0938 92.6562 18.0938C92.9271 18.0938 93.1458 18.1875 93.3125 18.375C93.5 18.5625 93.5938 18.7917 93.5938 19.0625V28.4688C93.5938 28.7396 93.5 28.9688 93.3125 29.1562C93.1458 29.3438 92.9271 29.4375 92.6562 29.4375C92.3854 29.4375 92.1562 29.3438 91.9688 29.1562C91.7812 28.9688 91.6875 28.7396 91.6875 28.4688V28.0312C90.625 28.9688 89.3854 29.4375 87.9688 29.4375C86.4062 29.4375 85.0729 28.8854 83.9688 27.7812ZM84.2188 23.75C84.2188 24.7917 84.5833 25.6771 85.3125 26.4062C86.0625 27.1354 86.9479 27.5 87.9688 27.5C88.9062 27.5 89.7292 27.1979 90.4375 26.5938C91.1458 25.9688 91.5625 25.1875 91.6875 24.25V23.2812C91.5625 22.3438 91.1458 21.5729 90.4375 20.9688C89.7292 20.3438 88.9062 20.0312 87.9688 20.0312C86.9271 20.0312 86.0417 20.3958 85.3125 21.125C84.5833 21.8542 84.2188 22.7292 84.2188 23.75ZM107.188 6.375C107.375 6.1875 107.604 6.09375 107.875 6.09375C108.146 6.09375 108.365 6.1875 108.531 6.375C108.719 6.5625 108.812 6.79167 108.812 7.0625V25.7188C108.812 26.4896 108.896 26.9792 109.062 27.1875C109.229 27.3958 109.573 27.5 110.094 27.5C110.365 27.5 110.594 27.5938 110.781 27.7812C110.969 27.9688 111.062 28.1979 111.062 28.4688C111.062 28.7396 110.969 28.9688 110.781 29.1562C110.594 29.3438 110.365 29.4375 110.094 29.4375C109.031 29.4375 108.229 29.1042 107.688 28.4375C107.167 27.75 106.906 26.8438 106.906 25.7188V7.0625C106.906 6.79167 107 6.5625 107.188 6.375ZM114.688 27.7812C113.583 26.6562 113.031 25.3125 113.031 23.75C113.031 22.1875 113.583 20.8542 114.688 19.75C115.792 18.6458 117.125 18.0938 118.688 18.0938C120.25 18.0938 121.583 18.6458 122.688 19.75C123.792 20.8542 124.344 22.1875 124.344 23.75C124.344 25.3125 123.792 26.6562 122.688 27.7812C121.583 28.8854 120.25 29.4375 118.688 29.4375C117.125 29.4375 115.792 28.8854 114.688 27.7812ZM114.938 23.75C114.938 24.7917 115.302 25.6771 116.031 26.4062C116.781 27.1354 117.667 27.5 118.688 27.5C119.708 27.5 120.583 27.1354 121.312 26.4062C122.062 25.6771 122.438 24.7917 122.438 23.75C122.438 22.7292 122.073 21.8542 121.344 21.125C120.615 20.3958 119.729 20.0312 118.688 20.0312C117.646 20.0312 116.76 20.3958 116.031 21.125C115.302 21.8542 114.938 22.7292 114.938 23.75ZM128.375 27.7812C127.271 26.6562 126.719 25.3125 126.719 23.75C126.719 22.1875 127.271 20.8542 128.375 19.75C129.479 18.6458 130.812 18.0938 132.375 18.0938C133.938 18.0938 135.271 18.6458 136.375 19.75C137.479 20.8542 138.031 22.1875 138.031 23.75C138.031 25.3125 137.479 26.6562 136.375 27.7812C135.271 28.8854 133.938 29.4375 132.375 29.4375C130.812 29.4375 129.479 28.8854 128.375 27.7812ZM128.625 23.75C128.625 24.7917 128.99 25.6771 129.719 26.4062C130.469 27.1354 131.354 27.5 132.375 27.5C133.396 27.5 134.271 27.1354 135 26.4062C135.75 25.6771 136.125 24.7917 136.125 23.75C136.125 22.7292 135.76 21.8542 135.031 21.125C134.302 20.3958 133.417 20.0312 132.375 20.0312C131.333 20.0312 130.448 20.3958 129.719 21.125C128.99 21.8542 128.625 22.7292 128.625 23.75ZM142.25 29.1562C142.083 29.3438 141.865 29.4375 141.594 29.4375C141.323 29.4375 141.094 29.3438 140.906 29.1562C140.719 28.9688 140.625 28.7396 140.625 28.4688V7.0625C140.625 6.79167 140.719 6.5625 140.906 6.375C141.094 6.1875 141.323 6.09375 141.594 6.09375C141.865 6.09375 142.083 6.1875 142.25 6.375C142.438 6.5625 142.531 6.79167 142.531 7.0625V23.7188L150.406 18.2812C150.615 18.1146 150.854 18.0625 151.125 18.125C151.396 18.1667 151.604 18.2917 151.75 18.5C151.896 18.7292 151.948 18.9688 151.906 19.2188C151.865 19.4688 151.729 19.6771 151.5 19.8438L146.469 23.3438L151.594 27.75C151.802 27.9167 151.906 28.1354 151.906 28.4062C151.927 28.6562 151.854 28.8854 151.688 29.0938C151.521 29.3021 151.302 29.4167 151.031 29.4375C150.781 29.4375 150.552 29.3542 150.344 29.1875L144.844 24.4688L142.531 26.0625V28.4688C142.531 28.7396 142.438 28.9688 142.25 29.1562ZM156.062 24.4375C155.875 24.625 155.646 24.7188 155.375 24.7188C155.104 24.7188 154.875 24.625 154.688 24.4375C154.5 24.25 154.406 24.0208 154.406 23.75V7.34375C154.406 7.07292 154.5 6.84375 154.688 6.65625C154.875 6.46875 155.104 6.375 155.375 6.375C155.646 6.375 155.875 6.46875 156.062 6.65625C156.25 6.84375 156.344 7.07292 156.344 7.34375V23.75C156.344 24.0208 156.25 24.25 156.062 24.4375ZM154.469 29.375C154.219 29.125 154.094 28.8229 154.094 28.4688C154.094 28.1146 154.219 27.8125 154.469 27.5625C154.719 27.3125 155.021 27.1875 155.375 27.1875C155.729 27.1875 156.031 27.3125 156.281 27.5625C156.531 27.8125 156.656 28.1146 156.656 28.4688C156.656 28.8229 156.531 29.125 156.281 29.375C156.031 29.625 155.729 29.75 155.375 29.75C155.021 29.75 154.719 29.625 154.469 29.375Z" fill="white"/>
<path d="M83.9575 115.078C84.5531 115.654 85.5027 115.638 86.0785 115.043L95.4613 105.336C96.0371 104.741 96.021 103.791 95.4253 103.215C94.8297 102.639 93.8801 102.655 93.3043 103.251L84.9641 111.879L76.3362 103.539C75.7406 102.963 74.7909 102.979 74.2152 103.575C73.6394 104.17 73.6555 105.12 74.2511 105.696L83.9575 115.078ZM82.5002 55.0254L83.5002 114.025L86.4998 113.975L85.4998 54.9746L82.5002 55.0254Z" fill="white"/>
</svg>
